<?xml version="1.0" standalone="no"?>
<!DOCTYPE svg PUBLIC "-//W3C//DTD SVG 20010904//EN"
 "http://www.w3.org/TR/2001/REC-SVG-20010904/DTD/svg10.dtd">
<svg version="1.0" xmlns="http://www.w3.org/2000/svg"
 width="3200.000000pt" height="3120.000000pt" viewBox="0 0 3200.000000 3120.000000"
 preserveAspectRatio="xMidYMid meet">

<g transform="translate(0.000000,3120.000000) scale(0.100000,-0.100000)"
fill="#000000" stroke="none">
<path d="M0 15600 l0 -15600 16000 0 16000 0 0 15600 0 15600 -16000 0 -16000
0 0 -15600z m31000 0 l0 -14600 -15000 0 -15000 0 0 14600 0 14600 15000 0
15000 0 0 -14600z"/>
<path d="M1200 15600 l0 -14400 14800 0 14800 0 0 14400 0 14400 -14800 0
-14800 0 0 -14400z m29200 0 l0 -14000 -14400 0 -14400 0 0 14000 0 14000
14400 0 14400 0 0 -14000z"/>
<path d="M1800 15600 l0 -13800 14200 0 14200 0 0 13800 0 13800 -14200 0
-14200 0 0 -13800z m16029 8574 c348 -603 591 -1033 588 -1043 -3 -9 -268
-470 -589 -1026 l-585 -1010 -669 0 -669 0 0 57 -1 57 625 1 c343 0 627 2 629
5 5 5 -135 252 -147 260 -5 2 -256 5 -557 5 l-549 1 0 127 0 127 475 3 c261 1
478 6 481 10 14 14 792 1367 797 1384 2 10 -14 48 -35 85 -22 38 -199 345
-393 683 -194 338 -358 621 -364 627 -9 10 -123 13 -486 13 l-475 1 0 127 0
127 545 3 c300 1 550 4 556 6 12 5 158 255 152 261 -2 3 -285 6 -629 7 l-624
3 -1 55 c0 30 1 58 3 62 2 4 302 8 666 8 l663 0 593 -1026z m-4263 468 c102
-175 174 -310 172 -320 -3 -9 -146 -260 -318 -557 -173 -297 -324 -559 -338
-583 l-24 -42 344 -592 c188 -325 342 -595 341 -600 -4 -11 -363 -632 -371
-640 -4 -4 -92 142 -197 325 l-190 332 0 1175 0 1175 190 333 c169 297 191
331 203 315 7 -10 92 -154 188 -321z m5594 -400 c63 -108 232 -401 376 -649
l263 -453 -141 -242 c-337 -582 -611 -1054 -617 -1060 -3 -4 -6 580 -6 1297 0
718 2 1305 5 1305 3 0 57 -89 120 -198z m-7920 -5162 c1130 -94 2147 -535
2884 -1250 506 -491 847 -1040 1030 -1656 l34 -114 -39 -10 c-47 -13 -1628
-403 -1881 -464 l-177 -43 -31 90 c-119 340 -377 678 -710 931 -356 269 -762
430 -1260 498 -157 21 -564 15 -737 -11 -620 -94 -1127 -368 -1512 -816 -337
-393 -552 -902 -623 -1475 -19 -153 -16 -583 5 -736 33 -237 85 -450 162 -661
51 -138 191 -419 273 -543 379 -581 949 -958 1627 -1079 324 -58 707 -53 1048
13 543 105 1043 385 1373 769 157 183 273 376 349 582 20 55 38 101 40 103 4
4 2078 -520 2087 -527 3 -3 -11 -62 -31 -131 -166 -551 -471 -1057 -916 -1519
-337 -348 -755 -648 -1210 -867 -703 -338 -1493 -499 -2350 -481 -452 10 -789
56 -1220 167 -531 136 -1057 377 -1500 686 -526 366 -964 836 -1294 1389 -356
598 -567 1257 -643 2010 -17 171 -17 739 0 905 41 399 101 696 213 1060 227
734 668 1432 1239 1959 790 728 1798 1151 2935 1231 148 10 665 4 835 -10z
m8155 10 c860 -55 1659 -315 2320 -755 514 -342 930 -782 1196 -1265 68 -124
162 -341 152 -350 -4 -4 -33 -14 -63 -22 -30 -9 -470 -138 -978 -287 -507
-150 -926 -269 -931 -267 -5 3 -27 36 -49 74 -61 103 -187 255 -301 365 -424
407 -1017 637 -1643 637 -606 0 -1068 -230 -1178 -589 -24 -77 -27 -221 -5
-304 54 -209 223 -368 497 -468 70 -26 1050 -339 2268 -724 563 -179 846 -288
1173 -451 326 -164 547 -317 776 -539 398 -387 597 -839 631 -1440 30 -523
-95 -1031 -363 -1469 -509 -830 -1496 -1384 -2707 -1520 -465 -52 -1004 -45
-1432 19 -582 87 -1160 284 -1624 551 -708 407 -1279 997 -1643 1696 -68 131
-174 369 -186 418 l-6 25 1013 314 c557 172 1016 314 1021 315 4 0 25 -37 46
-84 188 -420 529 -807 921 -1045 290 -177 598 -286 965 -341 136 -21 563 -30
688 -15 444 52 815 220 991 450 165 215 190 446 75 681 -73 147 -238 290 -466
404 -172 86 -318 137 -913 322 -2182 679 -2147 668 -2434 811 -345 171 -585
340 -822 577 -392 392 -605 835 -654 1361 -85 915 343 1754 1180 2314 510 341
1145 548 1840 600 158 12 465 12 645 1z m6605 -4700 l0 -4530 -1085 0 -1085 0
0 4530 0 4530 1085 0 1085 0 0 -4530z m-16975 -5709 c41 -18 115 -91 115 -113
0 -6 18 -39 40 -73 53 -82 69 -160 43 -213 -10 -20 -27 -39 -38 -41 -11 -2
-44 -25 -74 -52 -61 -54 -66 -56 -88 -34 -13 14 -10 25 28 102 26 53 39 88 32
90 -7 3 -10 21 -7 49 5 56 -5 61 -89 43 -84 -17 -188 -71 -237 -122 -86 -89
-98 -103 -116 -132 -24 -38 -40 -55 -53 -55 -6 0 -8 -7 -5 -15 4 -8 -1 -17
-10 -21 -9 -3 -13 -10 -10 -15 3 -5 -7 -14 -21 -21 -14 -6 -24 -17 -21 -25 3
-7 -6 -26 -19 -42 -14 -16 -25 -32 -25 -36 0 -4 -9 -18 -20 -32 -11 -14 -20
-34 -20 -44 0 -11 -4 -19 -9 -19 -5 0 -14 -15 -21 -32 -8 -18 -20 -41 -29 -52
-9 -10 -15 -21 -15 -25 2 -11 -27 -93 -36 -101 -7 -6 -34 -73 -50 -125 -6 -22
-20 -62 -30 -90 -22 -60 -54 -203 -76 -340 -18 -110 -15 -258 8 -335 11 -38
20 -48 58 -67 71 -35 194 -32 275 8 136 66 312 190 480 338 59 53 85 69 100
65 12 -3 15 -2 8 3 -8 6 14 34 73 93 69 68 84 88 80 106 -4 13 -3 25 1 27 9 6
8 54 0 134 -4 29 -3 55 2 57 15 10 72 -13 112 -45 l40 -32 38 37 c20 20 43 36
50 36 7 0 9 5 5 12 -4 7 -3 8 5 4 7 -5 20 3 32 18 11 14 25 26 30 26 14 0 1
-42 -18 -57 -9 -7 -10 -13 -4 -17 6 -4 8 -14 5 -24 -4 -11 1 -9 16 8 12 13 28
25 37 26 9 2 21 8 27 15 8 9 7 10 -4 5 -8 -4 -4 2 8 13 31 27 113 51 173 51
39 0 52 -5 81 -32 19 -18 43 -45 53 -61 17 -26 17 -28 0 -47 -11 -12 -31 -20
-49 -20 -52 0 -99 -18 -141 -55 -21 -19 -41 -33 -43 -30 -7 7 -49 -44 -62 -75
-7 -17 -16 -30 -21 -30 -5 0 -9 -7 -9 -15 0 -8 -6 -15 -14 -15 -8 0 -17 -12
-21 -27 -4 -16 -10 -32 -15 -38 -23 -28 -78 -148 -95 -205 -10 -36 -23 -70
-28 -77 -5 -7 -7 -58 -5 -113 2 -90 1 -103 -16 -115 -22 -16 -54 -3 -119 48
-39 30 -86 107 -67 107 6 0 9 4 5 9 -3 5 -1 13 5 16 8 5 7 12 -2 23 -11 12
-11 16 1 20 11 4 11 6 0 13 -9 6 -10 12 -4 17 10 7 15 72 5 72 -3 0 -18 -11
-33 -25 -41 -39 -33 -6 9 38 24 24 34 42 30 53 -5 13 -16 7 -58 -32 l-51 -48
-10 25 c-7 17 -11 20 -14 9 -8 -22 -34 -40 -60 -40 -15 0 -23 -6 -23 -16 0
-13 3 -14 15 -4 8 6 19 9 25 5 6 -4 17 -1 25 5 20 17 20 -4 0 -24 -9 -8 -27
-13 -43 -11 -22 2 -28 -1 -29 -16 -2 -16 3 -19 19 -13 12 4 18 2 14 -4 -8 -14
-45 -22 -51 -11 -3 4 -18 3 -33 -3 -36 -16 -35 -15 -27 -28 5 -8 10 -8 20 0
11 9 12 6 8 -12 -7 -28 -53 -79 -65 -72 -4 3 -8 -2 -8 -10 0 -8 9 -20 20 -26
14 -7 20 -7 20 0 0 5 -5 10 -11 10 -8 0 -8 5 1 15 7 8 19 15 26 15 8 0 14 7
14 16 0 8 4 13 9 9 5 -3 21 5 35 17 13 13 38 35 55 51 35 32 37 32 45 11 3 -8
2 -12 -4 -9 -6 3 -10 -1 -10 -10 0 -17 -45 -61 -72 -70 -9 -3 -20 -15 -23 -26
-4 -11 -15 -19 -30 -19 -12 0 -25 -6 -28 -14 -3 -8 -20 -17 -38 -21 -21 -5
-27 -10 -19 -15 16 -10 -78 -82 -97 -75 -7 2 -12 -1 -10 -8 1 -7 -10 -13 -25
-15 -20 -2 -28 -9 -28 -23 0 -10 -5 -19 -11 -19 -17 0 -132 -53 -147 -67 -8
-8 -24 -10 -38 -7 -15 4 -24 2 -24 -5 0 -7 -9 -9 -25 -5 -17 4 -25 2 -25 -6 0
-19 -89 -6 -142 20 -45 23 -149 126 -198 195 -49 71 -77 155 -100 299 -21 132
-22 212 -2 225 17 11 34 53 27 69 -5 14 -7 14 -15 2 -8 -12 -10 -10 -10 7 0
77 91 423 111 423 5 0 6 -12 3 -26 -5 -19 -4 -25 5 -20 14 9 15 48 1 62 -12
12 43 159 83 223 12 20 30 58 39 85 10 28 23 55 29 60 22 21 0 -56 -30 -103
-15 -25 -34 -62 -41 -81 -7 -19 -18 -41 -23 -47 -6 -9 -6 -13 1 -13 13 0 51
62 73 120 9 25 23 61 30 80 8 19 22 46 32 60 10 14 47 70 83 125 104 159 198
264 319 360 70 55 74 59 38 41 -46 -23 -61 -20 -27 6 16 13 31 26 32 30 2 5 9
8 17 8 7 0 18 7 25 15 30 36 143 45 205 16z m5563 -16 c48 -21 103 -75 153
-152 67 -102 66 -188 0 -235 -45 -32 -51 -34 -51 -13 0 8 -3 15 -7 15 -5 0
-13 10 -19 23 -8 18 -6 29 8 52 26 43 23 51 -27 75 -52 25 -158 30 -235 10
-25 -6 -65 -16 -89 -22 -25 -6 -57 -18 -71 -27 -15 -9 -49 -29 -76 -45 -27
-16 -93 -63 -146 -103 -54 -40 -102 -73 -107 -73 -6 0 -14 -6 -18 -14 -4 -8
-25 -28 -46 -45 -22 -17 -77 -78 -123 -137 -102 -128 -164 -248 -171 -334 -6
-57 -5 -60 21 -70 51 -19 143 -10 322 31 99 22 217 47 264 55 110 18 415 19
450 1 32 -16 91 -94 132 -176 44 -87 44 -155 0 -232 -37 -65 -221 -253 -274
-280 -21 -11 -38 -23 -38 -28 0 -5 -13 -14 -29 -21 -16 -6 -37 -21 -48 -33
-20 -23 -42 -39 -80 -60 -12 -7 -41 -25 -65 -40 -118 -77 -183 -115 -295 -173
-67 -35 -129 -64 -137 -64 -9 0 -16 -4 -16 -8 0 -12 -101 -58 -118 -54 -7 2
-23 -3 -35 -11 -22 -14 -42 -21 -106 -37 -39 -10 -64 7 -75 53 -4 18 -13 27
-26 27 -11 0 -19 7 -18 18 0 9 -3 43 -7 74 -7 55 -7 57 17 63 13 3 37 4 54 2
31 -4 150 47 188 81 12 11 28 22 36 26 9 5 8 2 -2 -7 -29 -24 -20 -30 11 -8
16 12 32 21 35 21 6 0 175 82 222 108 17 9 29 23 27 30 -3 7 5 12 21 12 16 0
26 6 26 14 0 16 35 31 60 28 9 -2 25 6 35 16 11 10 27 21 35 25 43 21 105 66
103 75 -2 6 3 9 10 6 7 -2 22 4 32 16 10 11 23 20 28 20 5 0 19 10 31 23 11
12 33 30 48 40 16 9 27 21 25 26 -1 5 34 47 79 93 44 45 89 95 98 110 17 26
17 27 -3 37 -12 7 -48 9 -88 6 -37 -3 -105 -7 -151 -9 -46 -2 -86 -7 -89 -10
-4 -3 -13 0 -21 7 -12 9 -16 9 -19 0 -3 -7 -20 -13 -39 -13 -19 0 -34 -5 -34
-11 0 -7 -9 -9 -21 -6 -12 3 -38 0 -58 -8 -35 -14 -194 -51 -278 -65 -23 -4
-48 -3 -55 1 -18 12 -41 11 -33 0 3 -6 -10 -5 -31 0 -20 6 -42 8 -49 6 -32
-13 -87 43 -160 159 -31 51 -55 156 -55 248 0 53 5 78 25 115 13 25 29 65 35
89 6 23 13 42 16 42 3 0 2 -10 -1 -22 -7 -22 -6 -22 11 2 10 14 17 33 16 44
-2 11 1 16 7 12 7 -4 11 1 11 14 0 12 4 19 9 16 5 -4 25 16 45 43 39 52 149
160 212 206 21 16 58 45 81 65 118 100 252 190 284 190 8 0 42 14 73 31 92 50
273 73 344 44z m7298 -34 c-3 -5 5 -12 19 -15 16 -4 32 -21 45 -48 24 -51 25
-47 -2 -58 -21 -8 -21 -9 -3 -10 48 -2 -47 -28 -160 -45 -66 -9 -131 -21 -145
-25 -14 -5 -52 -16 -84 -25 -39 -11 -55 -19 -46 -25 18 -11 -23 -23 -52 -15
-19 5 -20 4 -8 -5 12 -9 10 -11 -13 -7 -15 2 -25 2 -22 -1 2 -3 0 -11 -6 -18
-6 -7 -12 -26 -13 -41 -10 -102 -28 -274 -33 -303 -7 -37 -8 -52 -11 -142 -2
-45 -5 -56 -16 -52 -10 4 -14 -1 -13 -14 0 -12 5 -18 9 -16 4 3 8 -11 8 -30 0
-20 -4 -36 -9 -36 -5 0 -7 -19 -4 -42 4 -27 3 -39 -4 -35 -6 4 -13 0 -16 -7
-3 -8 -1 -16 5 -18 6 -2 3 -54 -12 -153 -24 -169 -23 -163 -39 -375 -7 -85
-16 -164 -21 -176 -4 -11 -4 -28 1 -37 11 -19 -3 -20 219 25 167 33 276 46
266 30 -3 -5 5 -7 18 -5 25 5 70 -32 60 -49 -3 -4 -1 -8 5 -8 6 0 8 -7 5 -15
-4 -8 -14 -15 -23 -15 -14 0 -14 -2 -1 -10 13 -8 12 -10 -3 -10 -11 0 -15 -4
-11 -12 5 -8 2 -9 -10 -5 -22 9 -43 -2 -26 -13 15 -9 -90 -45 -182 -61 -37 -7
-65 -16 -63 -20 3 -4 -5 -5 -17 -1 -16 4 -19 2 -13 -8 6 -10 3 -12 -13 -8 -12
3 -22 2 -24 -3 -3 -8 -57 -22 -143 -37 -36 -7 -40 -10 -40 -37 1 -17 4 -42 8
-57 7 -25 5 -28 -17 -28 -13 0 -29 7 -36 15 -6 8 -37 26 -67 40 -43 20 -71 25
-130 25 -95 0 -120 14 -172 92 -64 94 -59 100 79 116 63 6 117 15 121 20 4 4
10 57 12 117 8 172 26 358 47 500 18 120 29 208 61 465 6 52 17 159 23 238
l12 144 -31 -7 c-138 -28 -218 -37 -241 -26 -31 14 -84 97 -84 132 0 36 39 67
93 73 164 19 220 28 254 40 35 12 39 16 46 64 5 29 13 52 18 52 10 0 73 -32
100 -51 12 -9 45 -4 143 21 70 18 138 30 151 28 14 -3 22 -1 19 3 -2 4 12 11
33 14 21 4 45 8 53 10 35 7 151 4 146 -4z m-13289 -165 c-18 -20 -37 -36 -42
-36 -5 0 8 18 30 40 48 49 58 46 12 -4z m13120 -42 c-3 -3 -12 -4 -19 -1 -8 3
-5 6 6 6 11 1 17 -2 13 -5z m-62 -14 c-11 -5 -27 -9 -35 -9 -9 0 -8 4 5 9 11
5 27 9 35 9 9 0 8 -4 -5 -9z m-13136 -27 c-13 -16 -27 -29 -31 -31 -5 -2 -8
-11 -8 -19 0 -17 -90 -143 -102 -143 -4 0 -8 2 -8 4 0 11 64 106 71 106 5 0 9
5 9 11 0 14 72 99 84 99 5 0 -1 -12 -15 -27z m13038 1 c-3 -3 -12 -4 -19 -1
-8 3 -5 6 6 6 11 1 17 -2 13 -5z m2402 -273 c28 -32 48 -101 37 -132 -3 -8 -7
-45 -10 -84 -6 -88 -25 -297 -32 -350 -2 -22 -7 -80 -9 -130 -3 -49 -7 -100
-9 -113 -3 -13 -6 -105 -8 -205 -3 -176 3 -226 23 -196 11 16 4 -34 -6 -51 -4
-6 -1 -9 5 -8 24 6 35 -29 24 -72 -6 -22 -8 -40 -3 -40 10 0 4 -32 -11 -61
-11 -19 -18 -21 -59 -16 -69 8 -120 33 -133 65 -19 46 -14 549 8 743 4 40 2
59 -7 64 -7 5 -10 4 -6 -2 7 -11 -83 -26 -146 -24 -21 1 -48 -5 -60 -14 -12
-8 -26 -15 -32 -15 -5 0 -3 5 5 10 22 14 7 12 -33 -5 -42 -17 -50 -19 -42 -6
3 5 -8 3 -24 -5 -16 -8 -57 -17 -92 -19 -34 -2 -67 -9 -73 -15 -5 -5 -20 -10
-31 -10 -40 0 -63 -41 -72 -130 -3 -30 -10 -66 -15 -80 -6 -14 -12 -38 -15
-55 -3 -16 -9 -37 -14 -46 -4 -9 -11 -36 -14 -60 -2 -24 -9 -64 -15 -89 -18
-80 -22 -130 -10 -130 12 0 144 130 132 130 -4 0 10 17 30 38 20 20 52 53 70
72 19 19 42 41 53 48 11 7 14 10 6 6 -9 -5 -12 -3 -7 4 4 7 19 12 33 12 26 0
26 0 7 -22 -19 -21 -19 -21 2 -16 19 5 21 2 17 -24 -3 -20 -1 -28 6 -23 21 13
10 -20 -14 -44 -34 -32 -22 -41 12 -10 29 27 22 7 -11 -29 -12 -13 -19 -27
-16 -30 3 -4 -5 -11 -18 -17 -12 -5 -25 -18 -28 -27 -3 -10 -10 -18 -16 -18
-6 0 -8 -9 -5 -21 4 -15 -3 -30 -24 -50 -16 -16 -34 -40 -39 -54 -5 -14 -15
-24 -22 -23 -7 2 -12 -2 -11 -9 2 -6 -6 -14 -16 -18 -10 -3 -31 -17 -47 -30
-47 -41 -99 -29 -160 37 -104 112 -113 207 -44 476 16 63 27 118 25 123 -3 4
-1 10 5 14 15 9 13 48 -2 42 -45 -16 -182 104 -160 140 4 6 34 13 67 17 68 9
147 26 157 35 4 3 23 61 43 129 39 136 98 303 120 342 25 44 80 20 129 -54 29
-44 28 -61 -10 -143 -13 -28 -24 -59 -24 -68 0 -9 -4 -13 -10 -10 -6 3 -7 -1
-4 -9 4 -9 -1 -18 -10 -22 -9 -3 -13 -10 -10 -15 6 -11 -17 -69 -28 -69 -3 0
-5 -8 -4 -17 3 -20 41 -21 126 -3 189 39 355 43 396 9 11 -9 14 -8 15 7 1 24
5 65 20 184 6 52 10 148 8 214 l-4 118 57 -4 c50 -4 62 -9 87 -37z m-15614 9
c-3 -5 -11 -10 -16 -10 -6 0 -7 5 -4 10 3 6 11 10 16 10 6 0 7 -4 4 -10z
m3491 -89 c38 -28 68 -81 66 -114 -2 -17 -14 -55 -27 -84 -14 -28 -25 -59 -25
-68 0 -9 -4 -13 -10 -10 -6 3 -7 -1 -4 -9 4 -9 -1 -18 -10 -22 -9 -3 -13 -10
-10 -15 6 -11 -17 -69 -28 -69 -3 0 -5 -8 -4 -17 3 -20 41 -21 126 -3 221 46
359 44 412 -7 15 -14 26 -29 23 -31 -3 -3 0 -11 7 -19 8 -10 8 -17 -1 -26 -9
-9 -14 -9 -22 3 -9 12 -10 10 -6 -7 6 -26 -2 -29 -22 -10 -8 6 -11 7 -8 1 7
-12 -80 -27 -146 -25 -21 1 -48 -5 -60 -14 -12 -8 -26 -15 -32 -15 -5 0 -3 5
5 10 22 14 7 12 -33 -5 -42 -17 -50 -19 -42 -6 3 5 -8 3 -25 -5 -17 -9 -53
-16 -80 -17 -27 -1 -50 -5 -50 -9 0 -4 -6 -5 -14 -2 -8 3 -17 1 -21 -5 -3 -6
-16 -11 -29 -11 -41 0 -64 -40 -73 -130 -3 -30 -10 -66 -15 -80 -6 -14 -12
-38 -15 -55 -3 -16 -9 -37 -14 -46 -4 -9 -11 -36 -14 -60 -2 -24 -9 -64 -15
-89 -18 -79 -22 -130 -10 -130 12 0 143 130 132 130 -4 0 10 17 30 38 20 20
52 53 70 72 19 19 42 41 53 48 11 7 14 10 6 6 -9 -5 -12 -3 -7 4 4 7 19 12 33
12 26 0 26 0 7 -22 -19 -21 -19 -21 2 -16 13 3 21 0 21 -8 0 -7 -4 -11 -9 -8
-10 6 -10 1 -2 -20 3 -9 10 -13 15 -10 20 12 7 -23 -16 -45 -34 -32 -22 -41
12 -10 28 25 23 8 -8 -26 -10 -11 -17 -24 -16 -30 1 -5 -8 -14 -21 -20 -12 -5
-25 -18 -28 -27 -3 -10 -10 -18 -16 -18 -6 0 -8 -9 -5 -21 4 -15 -3 -30 -24
-50 -16 -16 -34 -40 -39 -54 -5 -14 -15 -24 -22 -23 -7 2 -12 -2 -11 -9 2 -6
-6 -14 -16 -18 -10 -3 -31 -17 -47 -30 -33 -28 -63 -31 -102 -11 -31 16 -90
77 -117 121 -42 67 -37 199 15 403 16 63 27 118 25 123 -3 4 -1 10 5 14 15 9
13 48 -2 42 -45 -16 -182 104 -160 140 4 6 35 14 69 18 34 4 84 12 110 19 45
11 49 15 61 57 38 129 136 415 149 436 17 26 39 24 79 -6z m4891 -8 c59 -44
78 -114 42 -164 -11 -16 -17 -29 -13 -29 3 0 2 -6 -4 -13 -6 -7 -13 -24 -16
-37 -6 -35 -17 -60 -25 -60 -4 0 -7 -10 -8 -22 -1 -11 -8 -25 -15 -29 -7 -5
-8 -9 -3 -9 6 0 2 -7 -8 -14 -22 -17 -23 -26 -6 -36 13 -9 58 -5 124 10 22 5
60 12 85 15 253 35 316 23 357 -67 10 -22 9 -27 -3 -32 -9 -3 -21 -3 -27 1 -7
4 -8 0 -4 -13 7 -18 7 -18 -8 0 -13 17 -15 18 -15 3 0 -13 -10 -17 -42 -19
-61 -2 -66 -2 -73 -10 -4 -4 -20 -5 -35 -2 -16 4 -41 -1 -60 -11 -17 -9 -34
-14 -38 -11 -3 3 1 6 8 6 7 0 10 3 7 6 -4 4 -13 2 -20 -5 -17 -13 -101 -30
-181 -36 -33 -2 -64 -9 -70 -15 -5 -5 -17 -10 -26 -10 -26 0 -60 -35 -65 -66
-11 -71 -24 -141 -29 -159 -3 -11 -10 -38 -16 -60 -6 -22 -13 -49 -16 -60 -3
-11 -7 -33 -9 -50 -2 -16 -8 -50 -14 -75 -12 -53 -14 -120 -3 -120 16 0 163
155 155 164 -2 2 5 7 16 11 12 3 21 12 21 18 1 19 53 74 78 81 12 4 22 12 22
17 0 6 -5 7 -12 3 -7 -4 -8 -3 -4 4 4 7 21 12 38 12 l31 0 -24 -21 -24 -22 30
7 c23 5 26 4 13 -4 -15 -9 -15 -13 -1 -42 12 -23 13 -33 5 -36 -23 -7 -46 -36
-33 -40 7 -2 21 5 32 17 11 12 23 21 26 21 4 0 -7 -15 -24 -32 -17 -18 -29
-38 -26 -45 2 -6 -5 -14 -16 -18 -12 -3 -27 -18 -35 -32 -8 -17 -16 -22 -20
-14 -9 14 -26 14 -26 0 0 -5 5 -7 10 -4 6 3 10 -1 10 -9 0 -9 5 -16 12 -16 6
0 2 -9 -10 -20 -12 -12 -22 -25 -22 -30 0 -6 -7 -10 -15 -10 -13 0 -20 -18
-16 -42 0 -4 -8 -10 -19 -13 -11 -4 -20 -11 -20 -16 0 -5 -11 -14 -25 -19 -14
-5 -28 -16 -31 -25 -3 -8 -10 -13 -14 -10 -5 3 -11 1 -15 -5 -3 -5 -19 -10
-34 -10 -69 0 -180 129 -189 220 l-5 50 -46 2 c-51 2 -58 1 -115 -8 -27 -5
-37 -3 -32 5 5 7 1 9 -8 5 -9 -3 -16 -11 -16 -16 0 -6 -16 -8 -35 -6 -19 2
-35 0 -35 -5 0 -5 -7 -6 -16 -3 -9 4 -22 3 -28 -2 -6 -5 -39 -17 -74 -27 -34
-10 -67 -24 -73 -31 -12 -14 -15 -159 -4 -186 4 -9 2 -26 -5 -37 -6 -12 -7
-21 -2 -21 5 0 9 -122 10 -272 1 -262 0 -272 -20 -289 -18 -16 -24 -17 -53 -5
-18 8 -35 12 -38 10 -2 -3 -10 2 -17 11 -7 8 -20 15 -29 15 -29 0 -41 20 -30
48 12 30 21 514 12 614 l-6 67 -42 -1 c-56 -3 -113 25 -152 73 l-31 39 -61
-73 c-107 -130 -189 -182 -274 -175 -67 6 -124 41 -182 115 -53 68 -75 127
-75 199 0 82 48 264 70 264 4 0 12 17 18 38 18 58 105 195 135 212 25 14 31
13 69 -8 41 -22 42 -22 62 -3 38 34 65 43 109 36 62 -10 133 -52 186 -111 50
-54 69 -101 78 -190 5 -47 1 -62 -30 -126 -20 -40 -45 -88 -57 -105 l-22 -33
24 0 c26 0 166 35 175 43 3 3 9 86 14 184 9 186 25 272 61 332 81 133 190 197
267 157 42 -22 90 -74 97 -104 3 -15 8 -33 10 -40 2 -8 -3 -20 -11 -29 -14
-13 -19 -13 -51 2 -44 21 -75 10 -127 -43 -42 -44 -62 -87 -72 -159 -4 -29
-11 -56 -16 -59 -5 -3 -7 -10 -4 -15 4 -5 7 -50 7 -100 l1 -90 26 6 c68 18
162 35 218 41 91 10 146 -2 198 -42 50 -38 48 -40 65 51 18 97 52 239 62 258
10 21 1 40 -16 34 -22 -9 -71 20 -113 66 -65 71 -60 81 47 94 136 18 139 20
172 138 15 55 34 118 42 140 102 283 96 275 173 218z m-2389 -330 c-10 -2 -26
-2 -35 0 -10 3 -2 5 17 5 19 0 27 -2 18 -5z m210 -2 c7 -4 -24 -6 -70 -4 -111
6 -121 11 -23 12 44 0 86 -3 93 -8z m-370 -18 c-10 -2 -26 -2 -35 0 -10 3 -2
5 17 5 19 0 27 -2 18 -5z m-65 -10 c-7 -2 -21 -2 -30 0 -10 3 -4 5 12 5 17 0
24 -2 18 -5z m-56 -9 c-3 -3 -12 -4 -19 -1 -8 3 -5 6 6 6 11 1 17 -2 13 -5z
m4138 -40 c44 -29 27 -105 -44 -190 -4 -6 -14 -28 -22 -50 -7 -21 -24 -55 -36
-74 -13 -19 -23 -41 -23 -48 0 -14 -39 -75 -51 -80 -4 -2 -4 -12 -1 -24 3 -14
1 -19 -6 -14 -8 5 -12 -2 -12 -18 0 -14 -5 -26 -11 -26 -8 0 -8 -5 1 -15 10
-12 10 -15 -2 -15 -13 0 -41 -73 -51 -135 -2 -11 -8 -28 -12 -39 -5 -12 -3
-21 6 -27 11 -7 9 -10 -8 -15 -24 -7 -30 -20 -12 -26 6 -2 0 -19 -15 -40 -13
-20 -22 -39 -18 -42 3 -3 -13 -6 -36 -6 -80 0 -165 57 -205 138 -8 15 -22 63
-32 107 -9 44 -18 85 -19 90 -2 6 -9 -8 -16 -30 -7 -22 -16 -42 -19 -45 -14
-11 -41 -70 -41 -88 0 -10 -9 -30 -19 -44 -11 -14 -22 -38 -25 -54 -2 -16 -5
-30 -6 -31 -2 -2 -3 -7 -4 -13 0 -5 -5 -10 -10 -9 -14 1 -26 -23 -26 -54 0
-68 -129 -53 -202 24 -59 62 -63 93 -34 234 13 66 32 146 40 178 9 32 16 67
16 78 0 11 10 48 21 82 12 35 24 103 28 157 l6 95 43 -1 c50 -1 92 -28 106
-68 10 -26 -7 -187 -22 -210 -4 -6 -7 -13 -7 -16 -8 -51 -20 -109 -35 -165
-10 -38 -21 -92 -25 -120 l-6 -50 30 45 c17 25 43 74 58 110 15 36 33 72 40
81 7 8 13 21 13 27 0 7 4 12 9 12 5 0 12 15 15 34 4 19 10 36 14 38 4 2 30 48
58 102 28 55 57 104 66 109 24 15 68 -1 106 -39 l35 -35 -8 -71 c-3 -39 -13
-108 -21 -152 -25 -145 -14 -319 16 -241 6 16 27 63 47 104 19 42 54 117 77
166 173 373 203 425 241 425 14 0 37 -7 50 -16z m1292 -68 c29 -30 53 -58 53
-61 0 -16 -48 -44 -75 -45 -16 0 -48 -5 -70 -12 -22 -6 -43 -12 -47 -12 -3 -1
-10 -5 -15 -10 -5 -6 -2 -6 7 -1 8 5 2 -4 -13 -18 -15 -15 -30 -27 -33 -27 -8
0 -44 -40 -67 -77 -14 -21 -36 -51 -50 -67 -14 -17 -23 -34 -20 -39 3 -6 -1
-15 -9 -21 -20 -15 -99 -176 -92 -188 3 -5 1 -14 -4 -21 -25 -31 -45 -132 -39
-202 9 -97 -3 -115 -62 -95 -22 7 -41 16 -41 20 0 4 -11 12 -24 18 -30 13 -81
96 -70 114 5 7 9 87 11 178 1 91 5 200 8 243 3 43 2 76 -3 74 -4 -3 -8 3 -8
13 0 10 4 16 8 14 6 -4 4 111 -4 175 0 3 0 12 1 19 2 20 59 5 96 -24 65 -52
75 -67 75 -111 0 -24 5 -43 10 -43 6 0 10 -10 10 -22 1 -22 1 -22 12 -3 7 11
18 26 25 33 7 7 13 20 13 27 0 8 6 18 13 22 7 4 19 22 26 40 7 18 22 35 32 38
11 4 17 10 14 15 -3 5 10 16 30 26 36 17 48 30 18 20 -11 -3 -9 1 6 12 40 29
113 51 170 52 52 0 56 -2 108 -54z m-9110 -21 c77 -39 128 -99 137 -163 8 -62
4 -69 -86 -147 -87 -76 -161 -129 -214 -154 -23 -10 -66 -31 -96 -45 -67 -32
-91 -33 -119 -3 l-22 22 7 -60 c8 -72 42 -144 74 -156 43 -16 101 -10 155 17
29 15 54 30 55 35 2 5 10 9 18 9 20 0 74 41 68 52 -3 4 -1 8 5 8 5 0 25 14 43
30 18 17 38 30 45 30 6 0 15 5 19 12 4 7 3 8 -4 4 -7 -4 -12 -5 -12 -2 0 3 16
13 36 22 19 9 52 34 73 55 21 22 40 36 44 33 9 -9 47 6 47 19 0 8 -3 8 -12 -1
-18 -18 -33 -15 -17 4 7 8 21 13 31 11 13 -4 31 13 69 66 70 97 214 238 269
264 25 12 61 24 81 27 32 6 40 2 89 -44 55 -51 69 -52 70 -4 0 12 3 35 6 52
l6 31 36 -15 c37 -15 61 -36 100 -88 28 -38 28 -70 1 -267 -17 -120 -22 -196
-20 -343 1 -118 -2 -201 -9 -222 -11 -31 -15 -34 -45 -32 -24 1 -38 9 -46 25
-7 13 -18 23 -24 23 -17 0 -24 44 -32 197 -5 110 -8 131 -20 122 -7 -6 -13
-16 -13 -21 0 -5 -18 -31 -40 -59 -22 -28 -40 -56 -40 -62 0 -21 -108 -134
-139 -147 -69 -28 -198 28 -269 118 -39 50 -82 138 -82 170 0 27 -11 28 -35 2
-16 -18 -14 -25 8 -21 5 1 6 -3 2 -9 -3 -5 -12 -10 -19 -10 -8 0 -19 -7 -26
-15 -7 -8 -15 -13 -19 -10 -4 2 -15 -9 -24 -24 -15 -26 -15 -29 -1 -35 12 -5
2 -18 -42 -58 -57 -53 -77 -64 -164 -96 -68 -24 -175 -22 -228 6 -73 39 -142
127 -183 237 -23 62 -42 190 -33 229 13 61 67 155 121 213 17 18 33 39 36 47
3 8 23 24 44 35 21 11 34 20 28 21 -15 0 104 70 120 70 8 0 17 5 20 10 13 21
119 11 172 -15z m2279 0 c72 -36 121 -91 137 -152 17 -65 12 -74 -102 -171
-98 -83 -142 -115 -189 -137 -19 -9 -61 -29 -95 -45 -73 -36 -99 -37 -128 -7
l-22 22 7 -55 c4 -30 16 -75 28 -101 22 -52 51 -69 116 -69 51 0 239 101 226
122 -3 4 -1 8 5 8 5 0 25 14 43 30 18 17 37 30 43 30 5 0 21 12 34 25 13 14
27 25 33 25 5 0 21 13 36 29 15 16 44 34 65 41 40 12 52 26 15 15 -23 -6 -23
-6 -3 10 11 9 28 14 38 11 25 -6 49 3 40 17 -3 5 -1 7 5 4 16 -11 8 -34 -21
-61 -30 -28 -35 -41 -12 -32 22 8 18 -7 -7 -34 -13 -14 -23 -27 -22 -30 0 -5
-24 -27 -69 -61 -25 -19 -30 -48 -5 -33 7 5 8 2 3 -5 -4 -7 -15 -11 -25 -8
-10 2 -24 0 -31 -5 -10 -7 -9 -8 6 -4 15 4 12 -1 -11 -22 -25 -21 -30 -31 -24
-48 7 -17 2 -26 -23 -45 -18 -13 -36 -22 -42 -21 -5 2 -7 0 -2 -4 11 -11 -23
-44 -63 -61 -132 -56 -234 -64 -308 -25 -114 61 -209 240 -215 405 -2 68 1 80
37 151 22 42 50 85 62 95 13 10 21 21 18 24 -3 3 3 12 15 19 12 7 21 18 21 25
0 6 19 23 43 37 23 14 38 26 32 26 -5 0 16 16 48 35 32 19 64 35 72 35 8 0 17
5 20 10 13 20 119 11 171 -15z m6099 -42 c27 -28 47 -59 51 -79 3 -18 -4 -111
-17 -206 -17 -131 -23 -223 -24 -379 0 -150 -3 -210 -13 -221 -19 -23 -75 -17
-87 10 -5 12 -15 22 -21 22 -19 0 -26 38 -31 188 -5 133 -13 169 -28 122 -3
-11 -24 -42 -46 -70 -21 -27 -39 -54 -39 -59 0 -20 -103 -133 -136 -149 -29
-13 -43 -14 -88 -5 -60 13 -150 70 -183 117 -65 92 -77 120 -81 183 -5 73 11
114 85 221 143 205 270 317 383 336 32 6 40 2 89 -45 59 -56 71 -54 71 13 0
20 3 43 6 51 9 24 57 2 109 -50z m1203 43 c72 -37 128 -101 140 -161 13 -60 8
-70 -60 -126 -29 -24 -71 -61 -92 -81 -22 -21 -45 -38 -51 -38 -6 0 -21 -9
-33 -21 -13 -11 -57 -36 -100 -55 -42 -19 -85 -39 -94 -44 -29 -16 -60 -12
-86 13 l-24 22 7 -45 c12 -80 25 -119 49 -147 22 -25 31 -28 88 -28 54 0 71 5
116 33 29 17 59 32 67 32 8 0 15 4 15 9 0 5 9 13 21 16 12 4 18 12 15 21 -3 8
1 14 10 14 8 0 27 14 41 30 13 17 31 30 38 30 7 0 16 7 19 15 3 9 21 22 41 31
19 8 42 25 51 39 9 15 30 27 50 31 19 3 37 11 40 16 4 6 -2 8 -17 3 l-24 -7
23 17 c13 9 29 14 37 11 20 -7 46 4 38 17 -3 6 -1 7 5 3 7 -4 12 -12 12 -18 0
-17 -41 -58 -57 -58 -8 0 -11 -5 -8 -10 3 -6 18 -8 33 -4 23 4 24 3 10 -6 -10
-6 -18 -18 -18 -25 0 -8 -7 -15 -16 -15 -8 0 -13 -4 -9 -9 7 -13 -25 -30 -45
-24 -13 4 -13 3 0 -6 8 -5 12 -12 10 -13 -3 -2 -17 -12 -32 -21 -29 -18 -37
-42 -15 -50 7 -4 6 -6 -4 -6 -9 -1 -22 -8 -29 -16 -7 -9 -19 -14 -27 -11 -8 3
-11 1 -8 -4 3 -6 1 -10 -6 -10 -7 0 -10 -11 -7 -31 4 -25 -1 -34 -26 -52 -17
-12 -33 -22 -36 -22 -3 0 -4 -3 -3 -6 9 -26 -134 -93 -223 -104 -74 -10 -154
15 -209 66 -118 109 -188 353 -137 474 23 54 81 145 93 145 5 0 9 7 9 15 0 9
7 18 15 21 8 4 15 11 15 18 0 13 60 56 78 56 7 0 11 5 10 12 -2 6 29 28 67 49
89 48 160 52 233 15z m2605 -57 c85 -37 107 -56 135 -112 42 -86 44 -107 37
-350 -4 -128 -9 -235 -12 -239 -2 -5 -13 -8 -24 -8 -10 0 -19 -4 -19 -8 0 -9
-30 -8 -77 3 -47 11 -76 61 -69 117 10 78 21 272 21 358 -1 100 -15 136 -46
119 -11 -5 -29 -25 -39 -42 -10 -18 -23 -36 -27 -42 -5 -5 -22 -34 -38 -62
-15 -29 -32 -53 -37 -53 -4 0 -8 -5 -8 -12 0 -6 -15 -43 -34 -82 -18 -39 -36
-81 -40 -93 -4 -13 -12 -23 -18 -23 -5 0 -8 -7 -4 -15 3 -8 -2 -34 -10 -57 -8
-24 -18 -74 -22 -112 -6 -64 -10 -71 -37 -86 -21 -12 -32 -14 -37 -6 -6 8 -8
8 -8 -1 0 -16 -103 36 -123 63 -16 22 -21 165 -18 598 l1 169 45 -6 c55 -8
121 -48 128 -79 3 -13 9 -59 13 -102 7 -79 7 -79 22 -50 9 16 21 43 27 59 6
17 28 58 50 92 64 100 140 118 268 62z m-8143 -244 c0 -2 -10 -10 -22 -16 -21
-11 -22 -11 -9 4 13 16 31 23 31 12z"/>
<path d="M15915 25135 c0 -30 2 -52 5 -49 7 7 7 94 0 99 -3 2 -5 -21 -5 -50z"/>
<path d="M15915 24675 c0 -62 2 -116 5 -119 3 -2 5 46 5 109 0 62 -2 116 -5
119 -3 2 -5 -46 -5 -109z"/>
<path d="M15915 21615 c0 -62 2 -116 5 -119 3 -2 5 46 5 109 0 62 -2 116 -5
119 -3 2 -5 -46 -5 -109z"/>
<path d="M15919 21198 c-4 -10 -4 -96 0 -92 6 5 9 94 4 94 -2 0 -4 -1 -4 -2z"/>
<path d="M8609 8378 c-12 -23 -12 -23 10 -4 23 21 26 26 11 26 -5 0 -15 -10
-21 -22z"/>
<path d="M8418 8143 c7 -3 16 -2 19 1 4 3 -2 6 -13 5 -11 0 -14 -3 -6 -6z"/>
<path d="M8181 7774 c0 -11 3 -14 6 -6 3 7 2 16 -1 19 -3 4 -6 -2 -5 -13z"/>
<path d="M8310 7770 c0 -5 5 -10 11 -10 5 0 7 5 4 10 -3 6 -8 10 -11 10 -2 0
-4 -4 -4 -10z"/>
<path d="M8207 7503 c-4 -3 -7 -11 -7 -17 0 -6 5 -5 12 2 6 6 9 14 7 17 -3 3
-9 2 -12 -2z"/>
<path d="M9513 7450 c-3 -11 -12 -20 -20 -20 -11 0 -11 -3 -1 -14 14 -15 32
-11 23 5 -4 5 -2 9 2 9 5 0 9 9 10 20 1 11 -1 20 -4 20 -2 0 -7 -9 -10 -20z"/>
<path d="M8065 7420 c-3 -5 -1 -10 4 -10 6 0 11 5 11 10 0 6 -2 10 -4 10 -3 0
-8 -4 -11 -10z"/>
<path d="M9475 7400 c-3 -5 -1 -10 4 -10 6 0 11 5 11 10 0 6 -2 10 -4 10 -3 0
-8 -4 -11 -10z"/>
<path d="M8056 7364 c-9 -23 -2 -28 13 -10 7 8 8 17 3 20 -6 3 -13 -1 -16 -10z"/>
<path d="M9475 7370 c-4 -6 -10 -8 -15 -5 -4 3 -13 -1 -19 -9 -9 -10 -8 -15 3
-19 14 -6 24 2 40 31 9 14 0 17 -9 2z"/>
<path d="M9430 7314 c0 -8 5 -12 10 -9 6 4 8 11 5 16 -9 14 -15 11 -15 -7z"/>
<path d="M9235 7140 c-3 -5 -1 -10 4 -10 6 0 11 5 11 10 0 6 -2 10 -4 10 -3 0
-8 -4 -11 -10z"/>
<path d="M9223 7112 c-12 -2 -27 -11 -35 -19 -11 -15 -11 -16 6 -9 19 7 19 6
1 -14 -28 -31 -5 -43 28 -14 33 28 33 61 0 56z"/>
<path d="M9130 7000 c0 -5 4 -10 9 -10 6 0 13 5 16 10 3 6 -1 10 -9 10 -9 0
-16 -4 -16 -10z"/>
<path d="M8975 6905 c-30 -25 -30 -25 -6 -25 13 0 21 3 18 7 -4 3 0 15 10 25
22 25 14 22 -22 -7z"/>
<path d="M8860 6809 c0 -11 27 -12 34 -1 2 4 -4 9 -15 9 -10 1 -19 -2 -19 -8z"/>
<path d="M8858 6760 l-33 -31 38 22 c20 11 37 25 37 30 0 15 -8 11 -42 -21z"/>
<path d="M8788 6758 c-13 -13 -19 -20 -14 -15 6 4 18 7 27 7 21 0 34 16 20 24
-5 4 -20 -4 -33 -16z"/>
<path d="M8743 6683 c-29 -18 -53 -39 -53 -45 0 -7 5 -5 13 4 6 9 25 19 41 22
39 9 66 29 58 42 -4 7 -26 -2 -59 -23z"/>
<path d="M8865 6710 c3 -5 8 -10 11 -10 2 0 4 5 4 10 0 6 -5 10 -11 10 -5 0
-7 -4 -4 -10z"/>
<path d="M8806 6679 c-16 -16 -49 -38 -73 -50 -23 -11 -43 -24 -43 -28 0 -5
-18 -16 -40 -26 -22 -10 -38 -20 -36 -22 6 -7 78 26 100 45 14 12 20 14 23 5
8 -22 21 -14 32 17 6 18 17 30 28 30 10 0 32 9 48 20 20 13 24 20 13 20 -9 0
-18 4 -20 9 -1 5 -16 -4 -32 -20z"/>
<path d="M8685 6690 c-3 -5 -2 -10 4 -10 5 0 13 5 16 10 3 6 2 10 -4 10 -5 0
-13 -4 -16 -10z"/>
<path d="M8600 6590 c0 -5 5 -10 10 -10 6 0 10 5 10 10 0 6 -4 10 -10 10 -5 0
-10 -4 -10 -10z"/>
<path d="M8565 6540 c-3 -5 3 -10 15 -10 12 0 18 5 15 10 -3 6 -10 10 -15 10
-5 0 -12 -4 -15 -10z"/>
<path d="M8635 6520 c3 -5 8 -10 11 -10 2 0 4 5 4 10 0 6 -5 10 -11 10 -5 0
-7 -4 -4 -10z"/>
<path d="M13898 8363 c7 -3 16 -2 19 1 4 3 -2 6 -13 5 -11 0 -14 -3 -6 -6z"/>
<path d="M13995 7570 c-3 -5 -1 -10 4 -10 6 0 11 5 11 10 0 6 -2 10 -4 10 -3
0 -8 -4 -11 -10z"/>
<path d="M14142 7484 c-11 -12 -9 -14 8 -14 11 0 20 4 20 9 0 17 -15 19 -28 5z"/>
<path d="M13927 7429 c7 -7 15 -10 18 -7 3 3 -2 9 -12 12 -14 6 -15 5 -6 -5z"/>
<path d="M23365 6950 c3 -5 8 -10 11 -10 2 0 4 5 4 10 0 6 -5 10 -11 10 -5 0
-7 -4 -4 -10z"/>
<path d="M23305 6880 c-3 -5 -1 -10 4 -10 6 0 11 5 11 10 0 6 -2 10 -4 10 -3
0 -8 -4 -11 -10z"/>
<path d="M11895 6950 c3 -5 8 -10 11 -10 2 0 4 5 4 10 0 6 -5 10 -11 10 -5 0
-7 -4 -4 -10z"/>
<path d="M11835 6880 c-3 -5 -1 -10 4 -10 6 0 11 5 11 10 0 6 -2 10 -4 10 -3
0 -8 -4 -11 -10z"/>
<path d="M15308 7333 c-26 -14 -48 -32 -50 -40 -2 -11 -10 -10 -40 5 l-37 19
-35 -35 c-20 -19 -36 -40 -36 -48 0 -7 -6 -17 -12 -21 -17 -11 -48 -70 -48
-92 0 -9 -4 -21 -8 -26 -17 -18 -54 -200 -50 -245 3 -39 6 -45 27 -48 43 -6
161 61 227 130 118 122 224 302 224 378 0 24 -6 33 -26 40 -42 16 -86 11 -136
-17z"/>
<path d="M16780 6950 c0 -5 5 -10 11 -10 5 0 7 5 4 10 -3 6 -8 10 -11 10 -2 0
-4 -4 -4 -10z"/>
<path d="M10297 7388 c-51 -11 -136 -66 -197 -129 -70 -72 -66 -89 10 -47 34
18 75 45 93 61 37 32 39 33 89 67 32 22 55 48 46 55 -2 1 -20 -2 -41 -7z"/>
<path d="M11113 7338 c-66 -36 -123 -77 -123 -89 0 -5 -5 -7 -12 -3 -6 4 -9 3
-6 -2 3 -5 -12 -29 -35 -54 -22 -25 -34 -36 -26 -26 8 12 9 17 2 13 -6 -4 -22
-28 -34 -52 -12 -25 -28 -45 -35 -45 -14 0 -82 -138 -85 -173 -7 -80 8 -97 71
-78 48 14 130 90 130 120 0 14 -4 20 -12 15 -7 -4 -8 -3 -4 5 4 6 11 9 15 7 7
-5 81 76 81 89 0 4 11 21 25 39 14 18 25 39 25 46 0 7 6 21 14 29 7 9 30 47
50 85 52 96 40 117 -41 74z"/>
<path d="M12577 7388 c-46 -10 -131 -63 -183 -115 -37 -36 -68 -82 -61 -89 4
-5 136 74 157 93 31 29 63 53 70 53 13 0 62 48 59 57 -2 5 -20 6 -42 1z"/>
<path d="M18532 7345 c-34 -15 -106 -67 -130 -95 -12 -13 -13 -13 -6 0 4 9 3
12 -2 7 -5 -5 -9 -12 -9 -16 0 -4 -18 -27 -39 -51 -21 -25 -35 -39 -31 -31 5
9 4 12 -3 7 -7 -4 -12 -13 -12 -21 0 -7 -20 -34 -45 -61 -25 -26 -45 -54 -45
-63 0 -9 -7 -24 -15 -34 -7 -10 -18 -40 -25 -66 -28 -119 47 -136 155 -33 25
24 45 53 45 63 0 13 -4 18 -12 13 -7 -4 -8 -3 -4 5 4 6 11 9 16 6 5 -3 14 5
21 17 7 12 23 31 36 41 12 10 23 27 23 38 0 10 4 19 8 19 5 0 26 33 47 73 21
39 45 83 54 97 25 38 42 80 36 91 -8 12 -24 11 -63 -6z"/>
<path d="M19810 7360 c-30 -17 -59 -36 -65 -43 -5 -7 -29 -29 -52 -49 -23 -20
-39 -38 -37 -41 3 -2 -2 -10 -11 -17 -8 -7 -15 -16 -15 -21 0 -13 149 67 162
87 4 6 26 24 50 40 86 59 97 74 51 74 -16 0 -53 -14 -83 -30z"/>
</g>
</svg>
